<svg width="20" height="16" viewBox="0 0 20 16" fill="none" xmlns="http://www.w3.org/2000/svg">
<path d="M5.49707 2.39024C5.49707 2.159 5.69003 1.97157 5.9281 1.97157H16.0049C16.1305 1.97157 16.2499 2.02488 16.3318 2.11741C16.4137 2.20998 16.4499 2.3327 16.431 2.45337L16.0005 5.19603C15.9679 5.40323 15.7842 5.55168 15.5749 5.55168C15.5533 5.55168 15.5314 5.55014 15.5094 5.54684C15.274 5.512 15.1123 5.29842 15.1482 5.06983L15.5031 2.80892H5.9281C5.69003 2.80892 5.49707 2.62145 5.49707 2.39024ZM8.7695 9.52781H4.94956L3.35696 0.49787C3.32152 0.296858 3.14211 0.149902 2.9321 0.149902H0.580932C0.34286 0.149902 0.149902 0.33733 0.149902 0.56858C0.149902 0.799829 0.34286 0.987257 0.580932 0.987257H2.56865L4.16126 10.0172C4.19723 10.2212 4.37946 10.3653 4.58558 10.3653C4.60972 10.3652 4.63429 10.3633 4.65886 10.3592C4.66058 10.3588 4.66226 10.3586 4.66398 10.3582C4.68937 10.3628 4.71556 10.3651 4.74229 10.3651H8.7695C9.00757 10.3651 9.20053 10.1777 9.20053 9.94644C9.20053 9.71519 9.00757 9.52781 8.7695 9.52781ZM7.93636 12.4906V13.2336C7.93636 13.9319 7.35146 14.5001 6.6325 14.5001C5.91354 14.5001 5.32863 13.9319 5.32863 13.2336V12.4906C5.32863 11.7922 5.91349 11.2241 6.6324 11.2241C7.35141 11.2241 7.93636 11.7922 7.93636 12.4906ZM7.0743 12.4906C7.0743 12.254 6.87612 12.0615 6.6325 12.0615H6.6324C6.38887 12.0615 6.19069 12.254 6.19069 12.4906V13.2336C6.19069 13.4702 6.38887 13.6627 6.6324 13.6627C6.87608 13.6627 7.0743 13.4702 7.0743 13.2336V12.4906ZM19.0903 8.58565C18.836 10.5705 17.8011 12.3403 16.1763 13.5691C14.8089 14.6032 13.1614 15.1499 11.4558 15.1499C11.1347 15.1499 10.8116 15.1305 10.4878 15.0913C10.217 15.0585 9.94405 15.011 9.67619 14.9502C9.49645 14.9094 9.36336 14.762 9.3453 14.5835C9.28941 14.0311 9.29693 13.4705 9.36781 12.9176C9.89305 8.8202 13.7522 5.90146 17.9705 6.41178C18.2415 6.44462 18.5145 6.49212 18.782 6.55287C18.9617 6.59372 19.0947 6.74109 19.1128 6.91945C19.1689 7.47164 19.1613 8.03225 19.0903 8.58565ZM18.2785 7.30561C18.1405 7.28054 18.0018 7.25951 17.8637 7.24276C14.1176 6.78985 10.6897 9.38188 10.2232 13.0211C10.1966 13.2287 10.1801 13.4374 10.1735 13.6462L14.1168 10.2905C14.2957 10.1381 14.5681 10.1555 14.725 10.3295C14.8818 10.5034 14.8639 10.768 14.6848 10.9203L10.7408 14.2766C12.5055 14.4535 14.2423 13.9703 15.6466 12.9083C17.0897 11.8169 18.0089 10.245 18.2348 8.48214C18.285 8.09151 18.2996 7.69703 18.2785 7.30561Z" fill="#01005B" stroke="#01005B" stroke-width="0.3"/>
</svg>
