<svg width="22" height="18" viewBox="0 0 22 18" fill="none" xmlns="http://www.w3.org/2000/svg">
<path d="M6.10998 2.73925C6.10998 2.47717 6.32325 2.26475 6.58638 2.26475H17.7239C17.8627 2.26475 17.9947 2.32517 18.0852 2.43003C18.1757 2.53495 18.2158 2.67403 18.1948 2.81079L17.719 5.91914C17.683 6.15397 17.48 6.32221 17.2486 6.32221C17.2247 6.32221 17.2006 6.32047 17.1762 6.31672C16.9161 6.27723 16.7374 6.03519 16.777 5.77611L17.1693 3.21375H6.58638C6.32325 3.21375 6.10998 3.00128 6.10998 2.73925ZM9.72687 10.8285H5.50484L3.74459 0.594558C3.70542 0.366745 3.50713 0.200195 3.27502 0.200195H0.676353C0.41322 0.200195 0.199951 0.412614 0.199951 0.674696C0.199951 0.936779 0.41322 1.1492 0.676353 1.1492H2.8733L4.63356 11.3831C4.67331 11.6144 4.87472 11.7776 5.10255 11.7776C5.12922 11.7775 5.15638 11.7753 5.18353 11.7707C5.18544 11.7703 5.18729 11.77 5.1892 11.7696C5.21725 11.7748 5.24621 11.7774 5.27574 11.7774H9.72687C9.99 11.7774 10.2033 11.565 10.2033 11.3029C10.2033 11.0409 9.99 10.8285 9.72687 10.8285ZM8.80604 14.1863V15.0283C8.80604 15.8198 8.15956 16.4637 7.36492 16.4637C6.57029 16.4637 5.92381 15.8198 5.92381 15.0283V14.1863C5.92381 13.3949 6.57023 12.751 7.36482 12.751C8.15951 12.751 8.80604 13.3949 8.80604 14.1863ZM7.85324 14.1863C7.85324 13.9181 7.6342 13.7 7.36492 13.7H7.36482C7.09565 13.7 6.87661 13.9181 6.87661 14.1863V15.0283C6.87661 15.2965 7.09565 15.5147 7.36482 15.5147C7.63414 15.5147 7.85324 15.2965 7.85324 15.0283V14.1863ZM21.1341 9.7607C20.853 12.0102 19.7092 14.016 17.9133 15.4086C16.402 16.5805 14.581 17.2002 12.6959 17.2002C12.341 17.2002 11.9839 17.1782 11.6261 17.1338C11.3268 17.0966 11.0251 17.0428 10.729 16.9739C10.5303 16.9277 10.3832 16.7605 10.3633 16.5583C10.3015 15.9322 10.3098 15.2969 10.3882 14.6703C10.9687 10.0265 15.2341 6.71863 19.8963 7.29699C20.196 7.33421 20.4977 7.38804 20.7934 7.4569C20.992 7.50319 21.139 7.67021 21.159 7.87235C21.221 8.49816 21.2126 9.13352 21.1341 9.7607ZM20.2368 8.31C20.0843 8.28158 19.931 8.25775 19.7784 8.23877C15.6379 7.72546 11.8492 10.6631 11.3336 14.7876C11.3042 15.0228 11.2859 15.2593 11.2787 15.496L15.637 11.6929C15.8348 11.5202 16.1358 11.5399 16.3093 11.7371C16.4826 11.9342 16.4628 12.234 16.2648 12.4067L11.9057 16.2105C13.8562 16.411 15.7757 15.8633 17.3279 14.6597C18.9229 13.4228 19.9389 11.6413 20.1885 9.6434C20.244 9.20069 20.2601 8.7536 20.2368 8.31Z" fill="#676869" stroke="#676869" stroke-width="0.4"/>
</svg>
