<svg width="26" height="19" viewBox="0 0 26 19" fill="none" xmlns="http://www.w3.org/2000/svg">
<path d="M19.303 4.95408H19.1717C18.0552 1.99411 15.313 0 12.2121 0C8.19961 0 4.91432 3.3283 4.73499 7.49052C2.06188 7.88893 0 10.3049 0 13.2164C0 16.4055 2.4741 19 5.51515 19H19.303C22.9957 19 26 15.8495 26 11.977C26 8.10458 22.9957 4.95408 19.303 4.95408ZM19.303 16.5213H5.51515C3.77741 16.5213 2.36364 15.0387 2.36364 13.2164C2.36364 11.3941 3.77741 9.91146 5.51515 9.91146H5.90909C6.56177 9.91146 7.09091 9.35657 7.09091 8.67212V7.84911C7.09091 4.88781 9.38828 2.47861 12.2121 2.47861C14.5493 2.47861 16.5886 4.13347 17.1713 6.50293C17.3059 7.05031 17.7767 7.43277 18.3157 7.43277H19.303C21.6924 7.43277 23.6364 9.47133 23.6364 11.977C23.6364 14.4828 21.6924 16.5213 19.303 16.5213Z" fill="#01005B"/>
</svg>
