<svg width="32" height="21" viewBox="0 0 32 21" fill="none" xmlns="http://www.w3.org/2000/svg">
<path d="M26.8561 9.22312C27.0236 8.64182 27.0761 8.04163 27.0761 7.45182C27.0761 3.45322 23.823 0.200195 19.8245 0.200195C18.2468 0.200195 16.7468 0.698349 15.4868 1.64094C14.2691 2.55168 13.3508 3.8492 12.9009 5.29479C12.886 5.34262 12.8348 5.45269 12.6276 5.41829C12.6093 5.41524 12.5901 5.41573 12.5705 5.41441C12.5024 5.41005 12.4285 5.40631 12.3523 5.40631C9.98084 5.40631 7.86527 6.93982 7.05442 9.23357C7.04238 9.2677 7.00541 9.34807 6.90752 9.3291C6.89755 9.32716 6.88765 9.32502 6.87769 9.32308C6.51833 9.25101 6.14984 9.2146 5.78238 9.2146C2.70415 9.2146 0.199951 11.7189 0.199951 14.7971C0.199951 17.8753 2.70415 20.3795 5.78224 20.3795H25.252C28.3302 20.3795 30.8345 17.8753 30.8345 14.7971C30.8345 12.3835 29.2546 10.2249 26.9709 9.48597C26.9146 9.46783 26.7968 9.42893 26.8561 9.22312ZM25.252 19.3411H5.78224C3.2768 19.3411 1.23835 17.3028 1.23835 14.7971C1.23835 12.2915 3.27673 10.253 5.78224 10.253C6.08968 10.253 6.39781 10.2844 6.6979 10.3462C6.79593 10.3664 6.89444 10.3766 6.99052 10.3766C7.4767 10.3766 7.85565 10.1105 8.00421 9.66478C8.64594 7.73876 10.3932 6.44471 12.3522 6.44471C12.4153 6.44471 12.4843 6.44935 12.5574 6.45433C12.637 6.45973 12.7194 6.46527 12.8076 6.4661L12.826 6.46617C13.4277 6.46617 13.7841 6.18919 13.885 5.64293C13.8878 5.62742 13.8901 5.61254 13.8924 5.60312C14.705 2.99252 17.089 1.23859 19.8245 1.23859C23.2505 1.23859 26.0377 4.02586 26.0377 7.45182C26.0377 8.03976 25.9515 8.63462 25.7817 9.21979C25.6991 9.5048 25.7178 9.75824 25.8375 9.97319C26.0154 10.2927 26.3353 10.382 26.4892 10.4249L26.5135 10.4317C28.4463 10.989 29.7962 12.7841 29.7962 14.7971C29.796 17.3027 27.7576 19.3411 25.252 19.3411Z" fill="#2A2996" stroke="#2A2996" stroke-width="0.4"/>
<path d="M13.3087 10.562C13.0108 10.4659 12.6654 10.4131 12.3359 10.4131C10.7727 10.4131 9.68091 11.4929 9.68091 13.0389C9.68091 14.5517 10.674 15.568 12.152 15.568C12.7409 15.568 13.1687 15.4406 13.3713 15.3645C13.4405 15.3386 13.6243 15.2695 13.5983 14.9838L13.5276 14.6669C13.4961 14.5207 13.3991 14.4335 13.2686 14.4335C13.2116 14.4335 13.1602 14.4507 13.1266 14.4636C12.9586 14.528 12.6908 14.6136 12.3067 14.6136C11.417 14.6136 10.8192 13.9652 10.8192 13.0002C10.8192 12.0083 11.4145 11.3674 12.3358 11.3674C12.6269 11.3674 12.883 11.4108 13.0968 11.4963L13.1079 11.5008C13.1417 11.5148 13.1927 11.536 13.2527 11.536C13.3235 11.536 13.4514 11.5056 13.5111 11.3026L13.6067 10.9778L13.6103 10.9623C13.6407 10.788 13.5222 10.6309 13.3087 10.562Z" fill="#2A2996"/>
<path d="M16.6962 10.3936C15.2471 10.3936 14.2349 11.4734 14.2349 13.0195C14.2349 14.5199 15.2152 15.5679 16.6188 15.5679C17.8089 15.5679 19.0898 14.7462 19.0898 12.942C19.0898 11.4414 18.1055 10.3936 16.6962 10.3936ZM16.6576 14.6521C15.9134 14.6521 15.3732 13.9532 15.3732 12.9903C15.3732 12.1535 15.7763 11.3091 16.6769 11.3091C17.6774 11.3091 17.9419 12.3962 17.9419 12.971C17.9418 13.9451 17.4018 14.6521 16.6576 14.6521Z" fill="#2A2996"/>
<path d="M22.8157 14.7352H21.791C21.6092 14.7352 21.6991 14.6467 21.7438 14.6029C22.5461 13.8188 23.1406 13.1305 23.1406 12.2817C23.1406 11.5509 22.666 10.8135 21.6057 10.8135C21.1905 10.8135 20.7906 10.9303 20.449 11.1514C20.2363 11.2891 20.1562 11.4908 20.2435 11.667L20.3292 11.8569L20.3354 11.8693C20.3863 11.9647 20.4801 12.0216 20.5861 12.0216C20.697 12.0216 20.7891 11.9618 20.8513 11.9214C21.0612 11.7849 21.2746 11.7157 21.4857 11.7157C21.9248 11.7157 22.1383 11.9248 22.1383 12.353C22.1327 12.9126 21.678 13.4354 20.5928 14.4685C20.5415 14.5125 20.2422 14.7718 20.1087 14.9409C20.0398 15.0283 20.0415 15.1399 20.0429 15.2382L20.0433 15.2776C20.0433 15.5138 20.2453 15.6374 20.4448 15.6374H22.8115C22.8266 15.639 22.8485 15.6407 22.8742 15.6407C23.1319 15.6407 23.2473 15.476 23.2473 15.3126V15.105C23.2474 14.8648 23.0312 14.7371 22.8157 14.7352Z" fill="#2A2996"/>
</svg>
