<svg width="25" height="14" viewBox="0 0 25 14" fill="none" xmlns="http://www.w3.org/2000/svg">
<path d="M2.8129 3.16406H6.40717M2.8129 8.28471H6.40717M0 5.72438H6.40717" stroke="#676869" stroke-width="1.1"/>
<path d="M16.8527 10.4959H11.9189V9.74912H16.1059V0.996773H6.82465V9.74912H8.38418V10.4959H6.07788V0.25H16.8527V10.4959Z" fill="#676869" stroke="#676869" stroke-width="0.5"/>
<path d="M24.0002 10.4962H21.6381V9.74946H23.2534V6.34331L19.9856 2.65396H16.8527V9.74946H18.1041V10.4962H16.106V1.90723H20.3218L24.0002 6.06V10.4962Z" fill="#676869" stroke="#676869" stroke-width="0.5"/>
<path d="M19.8935 12.9306C18.6647 12.9306 17.6653 11.931 17.6653 10.7024C17.6653 9.47371 18.6647 8.47412 19.8935 8.47412C21.1223 8.47412 22.1221 9.47374 22.1221 10.7024C22.1221 11.931 21.1223 12.9306 19.8935 12.9306ZM19.8935 9.22086C19.0768 9.22086 18.412 9.88541 18.412 10.7024C18.412 11.5193 19.0768 12.1838 19.8935 12.1838C20.7106 12.1838 21.3754 11.5193 21.3754 10.7024C21.3754 9.88537 20.7106 9.22086 19.8935 9.22086Z" fill="#676869" stroke="#676869" stroke-width="0.5"/>
<path d="M10.1841 12.9306C8.95525 12.9306 7.95581 11.931 7.95581 10.7024C7.95581 9.47371 8.95529 8.47412 10.1841 8.47412C11.4128 8.47412 12.4123 9.47374 12.4123 10.7024C12.4123 11.931 11.4129 12.9306 10.1841 12.9306ZM10.1841 9.22086C9.36728 9.22086 8.70255 9.88541 8.70255 10.7024C8.70255 11.5193 9.36728 12.1838 10.1841 12.1838C11.0008 12.1838 11.6655 11.5193 11.6655 10.7024C11.6655 9.88537 11.0008 9.22086 10.1841 9.22086Z" fill="#676869" stroke="#676869" stroke-width="0.5"/>
</svg>
