<svg width="69" height="35" viewBox="0 0 69 35" fill="none" xmlns="http://www.w3.org/2000/svg">
<path d="M9 7.33447H20.5M9 21.3345H20.5M0 14.3345H20.5" stroke="#01005B" stroke-width="2"/>
<path d="M48.9586 28.0126H35.4695V25.9709H46.9169V2.0417H21.5417V25.9709H25.8055V28.0126H19.5V0H48.9586V28.0126Z" fill="#01005B"/>
<path d="M68.5001 28.0124H62.0421V25.9707H66.4584V16.6582L57.5241 6.57139H48.9587V25.9707H52.3801V28.0124H46.917V4.52979H58.4432L68.5001 15.8836V28.0124Z" fill="#01005B"/>
<path d="M57.2728 34.669C53.9131 34.669 51.1807 31.936 51.1807 28.577C51.1807 25.2178 53.9132 22.4849 57.2728 22.4849C60.6323 22.4849 63.3658 25.2179 63.3658 28.577C63.3659 31.936 60.6324 34.669 57.2728 34.669ZM57.2728 24.5265C55.0397 24.5265 53.2223 26.3434 53.2223 28.577C53.2223 30.8106 55.0397 32.6274 57.2728 32.6274C59.5068 32.6274 61.3242 30.8106 61.3242 28.577C61.3242 26.3433 59.5068 24.5265 57.2728 24.5265Z" fill="#01005B"/>
<path d="M30.7261 34.669C27.3665 34.669 24.634 31.936 24.634 28.577C24.634 25.2178 27.3666 22.4849 30.7261 22.4849C34.0856 22.4849 36.8181 25.2179 36.8181 28.577C36.8181 31.936 34.0857 34.669 30.7261 34.669ZM30.7261 24.5265C28.493 24.5265 26.6756 26.3434 26.6756 28.577C26.6756 30.8106 28.493 32.6274 30.7261 32.6274C32.9591 32.6274 34.7764 30.8106 34.7764 28.577C34.7765 26.3433 32.9592 24.5265 30.7261 24.5265Z" fill="#01005B"/>
</svg>
