<svg width="19" height="28" viewBox="0 0 19 28" fill="none" xmlns="http://www.w3.org/2000/svg">
<path d="M11.8493 1.75247L9.81379 12.1408L17.1878 12.1649L7.15042 26.2479L9.18594 14.819L1.8124 14.7941L11.8493 1.75247ZM11.8507 6.76145e-07C11.802 6.76145e-07 11.7533 0.00172578 11.7055 0.00520339C11.387 0.0302038 11.1759 0.133601 10.9256 0.297021C10.7847 0.388298 10.6576 0.498315 10.5481 0.62386C10.5152 0.66154 10.4842 0.700724 10.4552 0.741277L0.346083 13.7373C-0.0530846 14.2688 -0.111719 14.9702 0.194985 15.5564C0.501239 16.1426 1.12051 16.5142 1.79932 16.519L7.00699 16.5558L5.36973 25.9259C5.21412 26.7312 5.65613 27.5338 6.43417 27.8572C6.66028 27.9516 6.90383 28.0002 7.14994 28C7.71689 28 8.18281 27.7424 8.53239 27.2771L18.6541 13.194C19.0533 12.6626 19.1115 11.9603 18.8052 11.3749C18.4989 10.7887 17.8797 10.4172 17.2009 10.4124L11.9932 10.4036L13.6129 2.16471C13.6472 2.02983 13.6645 1.89138 13.6643 1.75244C13.6643 0.80434 12.8871 0.0314908 11.9147 0.000822156C11.8931 -5.40901e-05 11.8718 6.76145e-07 11.8507 6.76145e-07Z" fill="#2A2996"/>
</svg>
