<svg width="23" height="31" viewBox="0 0 23 31" fill="none" xmlns="http://www.w3.org/2000/svg">
<path d="M11.9774 0.305368C11.7829 0.109133 11.5216 -0.00286684 11.2414 5.58086e-05C10.9652 0.000995231 10.7008 0.112682 10.5076 0.31017C10.0785 0.748671 0 11.1468 0 19.7561C0 25.9565 5.04449 31.001 11.2449 31.001C17.4453 31.001 22.4898 25.9565 22.4898 19.7561C22.4898 11.0068 12.4067 0.738129 11.9774 0.305368ZM11.2449 28.9377C6.18203 28.9377 2.06329 24.8189 2.06329 19.7561C2.06329 13.2493 8.95427 5.08192 11.2493 2.54255C13.5478 5.05885 20.4266 13.1434 20.4266 19.7561C20.4265 24.8189 16.3078 28.9377 11.2449 28.9377Z" fill="#2A2996"/>
<path d="M7.91114 16.4453C7.71188 16.4453 7.54007 16.5191 7.4145 16.6587C7.29269 16.7939 7.23089 16.9868 7.23089 17.2319V18.3796H5.57699V17.2319C5.57699 16.9835 5.51332 16.7891 5.38764 16.6543C5.25998 16.5175 5.08692 16.4453 4.88703 16.4453C4.68245 16.4453 4.50897 16.5197 4.38538 16.6606C4.26691 16.7956 4.20679 16.9879 4.20679 17.232V20.9556C4.20679 21.1999 4.26754 21.3928 4.38716 21.5286C4.51189 21.6705 4.68475 21.7454 4.88703 21.7454C5.08494 21.7454 5.25748 21.6726 5.38608 21.5348C5.51269 21.3991 5.57699 21.2042 5.57699 20.9556V19.5725H7.23089V20.9556C7.23089 21.1999 7.29164 21.3928 7.41126 21.5286C7.536 21.6705 7.70885 21.7454 7.91114 21.7454C8.10905 21.7454 8.28159 21.6726 8.41018 21.5348C8.5368 21.3991 8.60109 21.2042 8.60109 20.9556V17.232C8.60109 16.9836 8.53742 16.7892 8.41175 16.6544C8.28409 16.5175 8.11103 16.4453 7.91114 16.4453Z" fill="#2A2996"/>
<path d="M12.2098 23.5081C12.1102 23.4304 11.9759 23.3909 11.8103 23.3909H11.073C11.1383 23.3315 11.2223 23.2589 11.3303 23.1706C11.5652 22.9786 11.7282 22.8414 11.8289 22.7509C11.9413 22.65 12.051 22.5118 12.1551 22.34C12.2684 22.1532 12.3258 21.9434 12.3258 21.7166C12.3258 21.5702 12.2981 21.4268 12.2433 21.2905C12.1888 21.1545 12.1112 21.0328 12.0128 20.9288C11.9141 20.8245 11.7978 20.7412 11.6649 20.6804C11.4742 20.5956 11.2447 20.5527 10.9833 20.5527C10.7641 20.5527 10.5677 20.5866 10.3999 20.6531C10.2303 20.7205 10.0867 20.8116 9.97317 20.924C9.86023 21.0361 9.7737 21.1637 9.71597 21.3032C9.65846 21.4424 9.62934 21.5798 9.62934 21.712C9.62934 21.8907 9.70334 22.0022 9.76545 22.064C9.85438 22.1529 9.97056 22.2 10.1014 22.2C10.29 22.2 10.4 22.1142 10.4592 22.0419C10.52 21.9676 10.5712 21.87 10.6157 21.7435C10.6555 21.6298 10.6707 21.6002 10.6705 21.6002H10.6704C10.747 21.4829 10.8393 21.4305 10.9696 21.4305C11.0305 21.4305 11.0845 21.4435 11.1346 21.4702C11.1819 21.4954 11.2181 21.5296 11.2454 21.5746C11.2725 21.6195 11.2855 21.6703 11.2855 21.7302C11.2855 21.7906 11.2704 21.8526 11.2394 21.9196C11.2053 21.9934 11.1535 22.0677 11.0855 22.1406C11.0121 22.2194 10.9176 22.2999 10.8084 22.3771C10.7285 22.431 10.6058 22.5344 10.4337 22.693C10.2676 22.8457 10.0796 23.0308 9.87348 23.245C9.80835 23.3141 9.75178 23.4026 9.70063 23.5155C9.64666 23.6347 9.62036 23.734 9.62036 23.8195C9.62036 23.9599 9.67485 24.0878 9.77787 24.1894C9.88163 24.2922 10.0207 24.3442 10.1909 24.3442H11.8769C12.0357 24.3442 12.1618 24.2965 12.2515 24.2027C12.3377 24.1127 12.3832 23.9976 12.3832 23.8699C12.383 23.7215 12.323 23.5965 12.2098 23.5081Z" fill="#2A2996"/>
<path d="M17.6648 17.7065C17.4666 17.3041 17.17 16.989 16.7834 16.7702C16.4024 16.5546 15.9434 16.4453 15.4197 16.4453C15.034 16.4453 14.6831 16.5072 14.3763 16.6291C14.0652 16.7528 13.797 16.9344 13.5793 17.1689C13.3626 17.4019 13.1955 17.6869 13.0823 18.0159C12.9712 18.3391 12.9148 18.6978 12.9148 19.0824C12.9148 19.4572 12.9687 19.8118 13.075 20.1363C13.1836 20.4678 13.347 20.7563 13.561 20.9937C13.7767 21.2329 14.0483 21.4205 14.3682 21.5511C14.6839 21.6799 15.0443 21.7453 15.4391 21.7453C15.8358 21.7453 16.1946 21.6818 16.506 21.5562C16.822 21.4288 17.0926 21.2418 17.3107 21.0001C17.5266 20.7605 17.6907 20.4745 17.7982 20.1498C17.9037 19.8314 17.957 19.4744 17.957 19.0888C17.9569 18.565 17.8587 18.1 17.6648 17.7065ZM16.4115 19.9384C16.3069 20.1585 16.173 20.3152 16.0022 20.4172C15.8277 20.5213 15.6414 20.5719 15.4324 20.5719C15.271 20.5719 15.1217 20.542 14.9888 20.4832C14.8574 20.425 14.7386 20.3351 14.6358 20.2161C14.5314 20.0956 14.4488 19.9386 14.3898 19.7496C14.3286 19.5536 14.2976 19.329 14.2976 19.0825C14.2976 18.8383 14.3285 18.6169 14.3895 18.4242C14.4487 18.2376 14.5285 18.0844 14.6272 17.9685C14.7249 17.8538 14.8379 17.769 14.9729 17.709C15.108 17.6492 15.2583 17.6188 15.4196 17.6188C15.6507 17.6188 15.8485 17.6723 16.0241 17.7822C16.1972 17.8908 16.3279 18.0492 16.4236 18.266C16.5233 18.4923 16.5737 18.7669 16.5737 19.0824C16.5737 19.4237 16.5192 19.7118 16.4115 19.9384Z" fill="#2A2996"/>
</svg>
