<svg width="23" height="23" viewBox="0 0 23 23" fill="none" xmlns="http://www.w3.org/2000/svg">
<path d="M22.6772 19.8173C22.2798 19.4699 21.6744 19.5075 21.3243 19.9018C19.7161 21.7091 17.928 21.0519 17.0955 20.5778C18.8126 9.75761 14.9291 7.74379 9.58868 4.9742C7.34183 3.81003 4.79697 2.48626 2.22374 0.237728C1.97303 0.0170998 1.62773 -0.0533136 1.3108 0.0405708C0.993881 0.134455 0.74791 0.387943 0.662766 0.70715C-0.732647 5.97406 0.0904102 11.0955 2.99003 15.1231C5.83762 19.0803 10.3455 21.4979 15.6954 21.9532C16.4569 22.4836 17.6348 23 18.9403 23C20.1843 23 21.5419 22.5306 22.7623 21.1599C23.1076 20.7656 23.0745 20.1647 22.6772 19.8173ZM4.551 14.0153C2.25685 10.8326 1.43852 6.85658 2.18589 2.67872C4.48951 4.47661 6.70798 5.62669 8.6994 6.65942C13.5715 9.18491 16.4096 10.6589 15.3974 18.8738L12.9235 15.8789L13.4438 12.8088C13.5289 12.2925 13.1789 11.7996 12.6539 11.7151C12.1335 11.6306 11.6369 11.978 11.5517 12.4943L11.3105 13.9261L7.9804 9.89374L6.1167 7.0866C5.82816 6.64534 5.23215 6.52329 4.78751 6.81433C4.3476 7.10068 4.22462 7.69215 4.51316 8.12871L6.40051 10.9781C6.41943 11.0063 6.43835 11.0344 6.46201 11.0579L7.42697 12.2268L6.73163 12.2362C6.20184 12.2455 5.78086 12.6774 5.78559 13.1985C5.79505 13.7195 6.22077 14.1373 6.74582 14.1373C6.75055 14.1373 6.75528 14.1373 6.76001 14.1373L8.98321 14.1045L13.6283 19.7328C9.83465 18.9348 6.6654 16.9538 4.551 14.0153Z" fill="#01005B"/>
</svg>
