<svg width="18" height="19" viewBox="0 0 18 19" fill="none" xmlns="http://www.w3.org/2000/svg">
<path d="M8.55101 18.2002C8.49273 18.2002 8.43441 18.1912 8.37823 18.1732C6.48997 17.5683 4.88237 16.4082 3.59999 14.725C2.5904 13.3998 1.78201 11.7504 1.19743 9.82277C0.211277 6.57138 0.199951 3.67489 0.199951 3.55319C0.199951 3.26155 0.421486 3.01753 0.711826 2.9895C0.755544 2.98525 5.15374 2.53374 8.21825 0.308259C8.41668 0.16408 8.68539 0.16425 8.88382 0.308315C11.9475 2.53374 16.3462 2.98525 16.3903 2.98956C16.6804 3.01787 16.9019 3.26178 16.9019 3.55319C16.9019 3.67489 16.8906 6.57138 15.9045 9.82282C15.3198 11.7505 14.5115 13.3998 13.5019 14.725C12.2196 16.4082 10.612 17.5684 8.72373 18.1733C8.66755 18.1912 8.60928 18.2002 8.55101 18.2002ZM1.3488 4.05C1.39586 5.00047 1.57883 7.18943 2.28907 9.51991C3.50123 13.4968 5.60763 16.025 8.55095 17.0373C11.5011 16.0227 13.61 13.486 14.8206 9.49409C15.526 7.16808 15.707 4.99577 15.7534 4.05006C14.4847 3.86494 11.1982 3.23844 8.55089 1.45727C5.90335 3.23827 2.61758 3.86488 1.3488 4.05Z" fill="#676869" stroke="#676869" stroke-width="0.4"/>
<path d="M8.24846 11.9582C8.11413 11.9582 7.98343 11.9104 7.88042 11.8223L5.83253 10.071C5.59485 9.86771 5.56693 9.51026 5.77018 9.27253C5.97336 9.0348 6.33087 9.00682 6.5686 9.21018L8.16125 10.5722L11.3179 6.43154C11.5075 6.18282 11.8628 6.1348 12.1116 6.32451C12.3604 6.5141 12.4082 6.86945 12.2186 7.11817L8.69883 11.7352C8.60443 11.859 8.46325 11.9385 8.30837 11.955C8.28838 11.9571 8.26839 11.9582 8.24846 11.9582Z" fill="#676869" stroke="#676869" stroke-width="0.4"/>
</svg>
