<svg width="14" height="13" viewBox="0 0 14 13" fill="none" xmlns="http://www.w3.org/2000/svg">
<path d="M13.607 4.93921C13.584 4.86829 13.5417 4.80522 13.4847 4.75716C13.4277 4.7091 13.3584 4.67797 13.2846 4.6673L9.06062 4.05353L7.1711 0.222306C7.13807 0.15556 7.08703 0.0993764 7.02376 0.0600955C6.96049 0.0208145 6.8875 0 6.81303 0C6.73856 0 6.66558 0.0208145 6.6023 0.0600955C6.53903 0.0993764 6.488 0.15556 6.45496 0.222306L4.56545 4.05064L0.341451 4.66442C0.267817 4.67524 0.19867 4.70641 0.141801 4.75443C0.0849327 4.80244 0.0426046 4.86538 0.0195875 4.93616C-0.00342968 5.00695 -0.00622076 5.08275 0.0115288 5.15503C0.0292784 5.22731 0.0668629 5.2932 0.120046 5.34527L3.17644 8.3247L2.45525 12.5324C2.44318 12.6055 2.45164 12.6804 2.47969 12.749C2.50775 12.8175 2.55429 12.8769 2.61413 12.9205C2.67397 12.9641 2.74475 12.9902 2.81858 12.996C2.8924 13.0017 2.96636 12.9868 3.0322 12.9529L6.81339 10.9688L10.5917 12.9551C10.6576 12.989 10.7316 13.0039 10.8055 12.9982C10.8794 12.9924 10.9503 12.9662 11.0102 12.9225C11.07 12.8788 11.1166 12.8193 11.1446 12.7507C11.1725 12.682 11.1809 12.607 11.1687 12.5339L10.4475 8.32615L13.5046 5.34671C13.5579 5.29504 13.5957 5.22953 13.6138 5.15754C13.6319 5.08555 13.6295 5.00993 13.607 4.93921Z" fill="#FFB801"/>
</svg>
