<svg width="22" height="22" viewBox="0 0 22 22" fill="none" xmlns="http://www.w3.org/2000/svg">
<path d="M10.8 0.550049V21.05" stroke="#15005B" stroke-width="1.1" stroke-miterlimit="10" stroke-linecap="round" stroke-linejoin="round"/>
<path d="M10.8 16.3195C7.74865 16.3195 5.28076 13.8516 5.28076 10.8002C5.28076 7.74889 7.74865 5.28101 10.8 5.28101" stroke="#15005B" stroke-width="1.1" stroke-miterlimit="10" stroke-linecap="round" stroke-linejoin="round"/>
<path d="M3.55396 3.55444L5.22549 5.22598" stroke="#15005B" stroke-width="1.1" stroke-miterlimit="10" stroke-linecap="round" stroke-linejoin="round"/>
<path d="M0.550049 10.8H2.91543" stroke="#15005B" stroke-width="1.1" stroke-miterlimit="10" stroke-linecap="round" stroke-linejoin="round"/>
<path d="M3.55396 18.0463L5.22549 16.3748" stroke="#15005B" stroke-width="1.1" stroke-miterlimit="10" stroke-linecap="round" stroke-linejoin="round"/>
<path d="M10.8 8.08004C11.7462 6.40851 13.5439 5.28101 15.6018 5.28101C15.7279 5.28101 15.8462 5.28889 15.9724 5.29678C14.6556 5.99062 13.7647 7.37043 13.7647 8.95524C13.7647 11.2418 15.6175 13.0947 17.9041 13.0947C19.1656 13.0947 20.2931 12.527 21.05 11.636C20.64 14.2931 18.3614 16.3195 15.6018 16.3195C13.5439 16.3195 11.7462 15.192 10.8 13.5204" stroke="#15005B" stroke-width="1.1" stroke-miterlimit="10" stroke-linecap="round" stroke-linejoin="round"/>
</svg>
